<?xml version="1.0" encoding="utf-8"?>
<!-- Generator: Adobe Illustrator 18.1.0, SVG Export Plug-In . SVG Version: 6.00 Build 0)  -->
<svg version="1.1" id="Capa_1" xmlns="http://www.w3.org/2000/svg" xmlns:xlink="http://www.w3.org/1999/xlink" x="0px" y="0px"
	 viewBox="0 0 205.7 170.2" enable-background="new 0 0 205.7 170.2" xml:space="preserve">
<g>
	<g>
		<path fill="#2C8B80" d="M14.7,38.3c-3.4,3.4-7.5,7.5-11,11c-4.1,4.1-4.7,9.9,0,14.6c5,5,12.5,12.5,21.9,21.9
			c18.3,18.3,44,14.5,58.5-0.1c0,0-40.2-40.2-47.5-47.5C29.3,31,22,31,14.7,38.3z"/>
		<path fill="#2C8B80" d="M127.7,5.5c3.4,3.4,7.5,7.5,11,11c4.1,4.1,4.7,9.9,0,14.6c-5,5-12.5,12.5-21.9,21.9
			c-18.3,18.3-44,14.5-58.5-0.1c0,0,40.2-40.2,47.5-47.5C113.1-1.8,120.4-1.8,127.7,5.5z"/>
		<circle fill="#2C8B80" cx="54.8" cy="20.2" r="15.5"/>
	</g>
	<g>
		<path fill="#2C8B80" d="M130.2,147.8c0,3,0.6,5.3,1.7,7c1.1,1.7,3.3,2.6,6.6,2.6c1.3,0,2.7-0.1,4.3-0.4c1.6-0.3,2.8-0.8,3.7-1.4
			V168c-1.6,0.7-3.5,1.2-5.7,1.5c-2.3,0.3-4.2,0.4-6,0.4c-3.9,0-7.2-0.4-9.7-1.3c-2.5-0.9-4.5-2.2-5.9-3.9c-1.4-1.8-2.4-4-3-6.6
			c-0.5-2.6-0.8-5.7-0.8-9.1V75.4h14.8V147.8z"/>
		<path fill="#2C8B80" d="M161.4,150.5c2.3,3.8,5.4,6.2,9.1,7.2c3.7,1,7.5,0.6,11.3-1.2c3.3-1.6,5.8-3.6,7.4-6
			c1.6-2.4,2.8-5.1,3.5-8l13,2.7c-1.3,5.3-3.5,9.7-6.6,13.2c-3.1,3.4-6.8,6.2-11,8.2c-4,1.9-8.1,3-12.3,3.3
			c-4.2,0.3-8.2-0.1-11.9-1.3c-3.8-1.2-7.2-3.2-10.3-5.9c-3.1-2.7-5.7-6.2-7.7-10.5c-2-4.2-3-8.4-3.1-12.6c-0.1-4.2,0.6-8.1,2-11.8
			c1.4-3.7,3.6-7,6.6-10c2.9-3,6.4-5.5,10.4-7.3c3.7-1.7,7.4-2.7,11.1-2.8c3.7-0.1,7.2,0.5,10.5,1.9c3.3,1.4,6.5,3.6,9.4,6.7
			c2.9,3,5.5,6.9,7.7,11.6l1.7,3.7L161.4,150.5z M184.1,127.6c-1.9-3.9-4.6-6.4-8-7.6c-3.4-1.1-7.3-0.7-11.5,1.3
			c-4,1.9-6.6,4.5-7.9,7.9c-1.3,3.4-1.2,7.2,0.1,11.3L184.1,127.6z"/>
		<path fill="#2C8B80" d="M98,161h-0.4c-2.9,5.1-9.9,8.9-18.2,8.9c-9.4,0-22-4.5-22-18.2c0-17.5,22-19.9,40.4-19.9v-1.5
			c0-7.2-6.1-10.8-13.5-10.8c-6.2,0-12.2,2.9-16,6.7l-7.6-8.9c6.6-6.1,15.9-9.3,24.8-9.3c21,0,26.2,13,26.2,24.7v35.7H98V161z
			 M97.8,141.7h-3.3c-9.3,0-22.4,1.1-22.4,9.8c0,5.6,5.3,7.3,10.3,7.3c10,0,15.4-5.7,15.4-15V141.7z"/>
		<polygon fill="#2C8B80" points="0,109.7 31.4,170.2 31.7,170.2 62.8,109.7 47.2,109.7 31.7,142.9 31.4,142.9 16,109.7 		"/>
	</g>
</g>
</svg>
